<mxfile host="app.diagrams.net" modified="2023-12-17T06:19:20.881Z" agent="Mozilla/5.0 (X11; Linux x86_64) AppleWebKit/537.36 (KHTML, like Gecko) Chrome/116.0.5845.1077 YaBrowser/23.9.1.1077 Yowser/2.5 Safari/537.36" version="22.1.11" etag="QFN6nsKP9n2CDzdL6W5t" type="github">
  <diagram name="Страница — 1" id="tTkT_D9K_i8SfMuSpS75">
    <mxGraphModel>
      <root>
        <mxCell id="0" />
        <mxCell id="1" parent="0" />
      </root>
    </mxGraphModel>
  </diagram>
</mxfile>
